<!DOCTYPE svg PUBLIC "-//W3C//DTD SVG 1.1//EN" "http://www.w3.org/Graphics/SVG/1.1/DTD/svg11.dtd">
<!-- Uploaded to: SVG Repo, www.svgrepo.com, Transformed by: SVG Repo Mixer Tools -->
<svg height="800px" width="800px" version="1.1" id="Layer_1" xmlns="http://www.w3.org/2000/svg" xmlns:xlink="http://www.w3.org/1999/xlink" viewBox="0 0 512.001 512.001" xml:space="preserve" fill="#000000">
<g id="SVGRepo_bgCarrier" stroke-width="0"/>
<g id="SVGRepo_tracerCarrier" stroke-linecap="round" stroke-linejoin="round"/>
<g id="SVGRepo_iconCarrier"> <path style="fill:#09aff6;" d="M512.001,256.006c0,141.395-114.606,255.998-255.996,255.994 C114.606,512.004,0.001,397.402,0.001,256.006C-0.007,114.61,114.606,0,256.005,0C397.395,0,512.001,114.614,512.001,256.006z"/> <path style="fill:#09aff6;" d="M510.601,282.861C455.059,227.316,326.159,98.423,326.073,98.336 C308.194,79.53,283.391,67.84,255.996,67.84c-54.345,0-98.56,45.927-98.56,102.382c0,10.299,1.781,20.511,4.675,30.513 c-0.087-0.122-0.146-0.259-0.25-0.371c-0.297-0.321-13.185-13.17-13.378-13.378c-0.297-0.321-0.665-0.55-1.022-0.797 c-0.146-0.234-0.272-0.481-0.465-0.69c-0.397-0.429-0.886-0.729-1.366-1.066c-0.332-0.234-0.574-0.553-0.948-0.739 c-0.081-0.041-0.169-0.03-0.25-0.067c-0.481-0.223-1.017-0.291-1.541-0.418c-0.554-0.133-1.09-0.317-1.646-0.333 c-0.083-0.002-0.153-0.048-0.237-0.048c-0.39,0-0.724,0.17-1.1,0.223c-0.614,0.085-1.219,0.143-1.796,0.363 c-0.481,0.183-0.877,0.476-1.31,0.741c-0.464,0.283-0.932,0.526-1.337,0.901c-0.428,0.396-0.726,0.882-1.061,1.36 c-0.235,0.334-0.555,0.577-0.742,0.951l-41.067,82.133c-0.353,0.706-0.602,1.468-0.742,2.246l-24.64,139.627 c-0.546,3.094,0.783,6.083,3.199,7.905c0.354,0.453,43.631,43.737,59.532,59.579c37.213,21.092,80.225,33.145,126.059,33.143 C388.325,512.003,497.179,411.631,510.601,282.861z"/> <g> <path style="fill:#ffffff;" d="M444.782,411.373l-24.64-139.627c-0.141-0.778-0.389-1.54-0.742-2.245l-41.067-82.133 c-0.188-0.377-0.51-0.621-0.745-0.956c-0.334-0.476-0.632-0.961-1.057-1.356c-0.405-0.375-0.876-0.621-1.342-0.905 c-0.432-0.266-0.827-0.557-1.308-0.739c-0.577-0.22-1.181-0.276-1.794-0.363c-0.377-0.052-0.71-0.223-1.102-0.223 c-0.083,0-0.153,0.045-0.236,0.048c-0.557,0.016-1.093,0.201-1.648,0.333c-0.525,0.127-1.059,0.195-1.539,0.417 c-0.081,0.037-0.17,0.028-0.251,0.068c-0.374,0.187-0.617,0.507-0.948,0.74c-0.48,0.337-0.969,0.637-1.365,1.066 c-0.369,0.399-0.609,0.86-0.889,1.317c-0.272,0.442-0.569,0.847-0.755,1.338c-0.213,0.562-0.267,1.149-0.352,1.745 c-0.057,0.389-0.23,0.736-0.23,1.14v127.638l-98.56,84.471v-47.842c0-4.54-3.678-8.213-8.213-8.213 c-4.535,0-8.213,3.674-8.213,8.213v47.851l-98.56-84.478V191.04c0-0.404-0.174-0.751-0.23-1.14 c-0.086-0.596-0.14-1.184-0.352-1.745c-0.186-0.492-0.483-0.897-0.755-1.338c-0.279-0.458-0.519-0.918-0.889-1.317 c-0.397-0.429-0.885-0.729-1.365-1.066c-0.332-0.234-0.574-0.553-0.948-0.74c-0.081-0.041-0.169-0.03-0.251-0.067 c-0.481-0.223-1.017-0.291-1.541-0.418c-0.554-0.133-1.09-0.317-1.646-0.333c-0.083-0.002-0.153-0.048-0.236-0.048 c-0.39,0-0.725,0.17-1.101,0.223c-0.614,0.085-1.218,0.143-1.795,0.363c-0.481,0.183-0.877,0.476-1.311,0.741 c-0.464,0.283-0.932,0.526-1.337,0.901c-0.428,0.396-0.726,0.882-1.061,1.36c-0.235,0.334-0.555,0.576-0.742,0.951l-41.067,82.133 c-0.353,0.706-0.602,1.468-0.742,2.245l-24.64,139.627c-0.666,3.77,1.36,7.491,4.877,8.983c3.521,1.516,7.604,0.361,9.854-2.727 l60.474-83.152l108.229,92.769c1.54,1.324,3.441,1.981,5.346,1.981c1.905,0,3.806-0.658,5.346-1.981l108.234-92.769l60.477,83.152 c2.245,3.097,6.324,4.251,9.854,2.727C443.424,418.864,445.449,415.142,444.782,411.373z M132.801,319.786l-43.229,59.43 l18.255-103.437l24.974-49.945V319.786z M379.201,319.786v-93.952l24.973,49.946l18.255,103.437L379.201,319.786z"/> <path style="fill:#ffffff;" d="M250.896,320.673c1.495,1.187,3.3,1.78,5.105,1.78c1.812,0,3.621-0.593,5.117-1.789 c3.818-3.04,93.443-75.344,93.443-150.443c0-56.454-44.214-102.382-98.56-102.382s-98.56,45.927-98.56,102.382 C157.441,245.678,247.081,317.649,250.896,320.673z M256.001,84.267c45.29,0,82.133,38.56,82.133,85.955 c0,57.573-63.461,117.028-82.145,133.278c-18.689-16.194-82.122-75.427-82.122-133.278 C173.867,122.827,210.711,84.267,256.001,84.267z"/> <path style="fill:#ffffff;" d="M305.281,174.613c0-27.174-22.106-49.28-49.28-49.28s-49.28,22.106-49.28,49.28 s22.106,49.28,49.28,49.28S305.281,201.788,305.281,174.613z M223.147,174.613c0-18.115,14.738-32.853,32.853-32.853 s32.853,14.738,32.853,32.853s-14.738,32.853-32.853,32.853S223.147,192.729,223.147,174.613z"/> </g> </g>
</svg>